<svg width="303" height="196" viewBox="0 0 303 196" fill="none" xmlns="http://www.w3.org/2000/svg">
<rect width="303" height="195.514" rx="10" fill="#FFEAB3"/>
<path d="M0 10C0 4.47715 4.47715 0 10 0H293C298.523 0 303 4.47715 303 10V21.3119H0V10Z" fill="#F2BE32"/>
<circle cx="287.248" cy="11.1194" r="3.70642" fill="#D3A21C"/>
<circle cx="276.128" cy="11.1194" r="3.70642" fill="#D3A21C"/>
<circle cx="265.009" cy="11.1194" r="3.70642" fill="#D3A21C"/>
<rect x="60" y="39" width="183" height="126" rx="10" fill="white"/>
<path d="M60 49C60 43.4772 64.4772 39 70 39H233C238.523 39 243 43.4772 243 49V64H60V49Z" fill="#E7F2FB"/>
<path d="M60 49C60 43.4772 64.4772 39 70 39H233C238.523 39 243 43.4772 243 49V64H60V49Z" stroke="black"/>
<line opacity="0.9" x1="152" y1="63" x2="243" y2="63" stroke="#19568C" stroke-width="2"/>
<path d="M73.5013 51.9787H76.3756V51.3006H73.5013V48.7264H76.9637V48.0453H72.7333V55H73.5013V51.9787ZM79.7578 55.099C81.1769 55.099 82.2781 54.0489 82.2781 52.5398C82.2781 51.0366 81.1889 50.0105 79.7788 50.0105C78.3567 50.0105 77.2676 51.0546 77.2676 52.5608C77.2676 54.0609 78.3477 55.099 79.7578 55.099ZM79.7578 54.4299C78.7647 54.4299 78.0236 53.6499 78.0236 52.5548C78.0236 51.4476 78.7767 50.6856 79.7758 50.6856C80.7749 50.6856 81.516 51.4506 81.516 52.5428C81.516 53.6469 80.7569 54.4299 79.7578 54.4299ZM83.4254 55H84.1725V52.5728C84.1725 51.5827 84.5685 50.7036 85.5676 50.7036C85.7417 50.7036 85.9067 50.7306 86.0687 50.7786L86.1827 50.0855C85.9997 50.0345 85.7987 50.0105 85.6007 50.0105C84.9196 50.0105 84.4695 50.3105 84.1515 50.9046H84.1455L84.0615 50.1095H83.4254V55ZM89.6997 48.0453L89.4236 55H90.1707L90.3987 49.1734L92.874 54.0789H93.441L95.8773 49.1764L96.1083 55H96.8854L96.6034 48.0453H95.6913L93.177 53.0828L90.6328 48.0453H89.6997ZM102.349 54.4659L101.995 53.9769C101.575 54.2679 101.077 54.4419 100.546 54.4419C99.5287 54.4419 98.8626 53.8089 98.7846 52.7918H102.709C102.718 52.7228 102.73 52.5818 102.73 52.4407C102.73 51.0786 101.836 50.0105 100.441 50.0105C99.0936 50.0105 98.0255 51.0096 98.0255 52.5908C98.0255 54.2109 99.1446 55.099 100.51 55.099C101.212 55.099 101.878 54.865 102.349 54.4659ZM98.7996 52.2097C98.8926 51.3216 99.5437 50.6676 100.447 50.6676C101.401 50.6676 101.944 51.3996 101.983 52.2097H98.7996ZM108.153 55V52.0387C108.153 50.8116 107.475 50.0105 106.263 50.0105C105.528 50.0105 104.922 50.3045 104.514 50.8776L104.433 50.1095H103.797V55H104.547V52.2427C104.547 51.3426 105.18 50.6916 106.104 50.6916C106.965 50.6916 107.403 51.2586 107.403 52.1377V55H108.153ZM108.921 50.7606H109.833V53.4788C109.833 54.601 110.713 55.069 111.604 55.099L111.697 54.4779C110.992 54.3219 110.581 54.1359 110.581 53.1338V50.7606H111.871V50.1095H110.581V48.3963L109.833 48.5494V50.1095H108.921V50.7606ZM116.714 54.4659L116.36 53.9769C115.94 54.2679 115.442 54.4419 114.911 54.4419C113.894 54.4419 113.228 53.8089 113.15 52.7918H117.074C117.083 52.7228 117.095 52.5818 117.095 52.4407C117.095 51.0786 116.201 50.0105 114.806 50.0105C113.459 50.0105 112.391 51.0096 112.391 52.5908C112.391 54.2109 113.51 55.099 114.875 55.099C115.577 55.099 116.243 54.865 116.714 54.4659ZM113.165 52.2097C113.258 51.3216 113.909 50.6676 114.812 50.6676C115.766 50.6676 116.309 51.3996 116.348 52.2097H113.165ZM122.173 54.4659L121.819 53.9769C121.399 54.2679 120.901 54.4419 120.37 54.4419C119.353 54.4419 118.687 53.8089 118.609 52.7918H122.533C122.542 52.7228 122.554 52.5818 122.554 52.4407C122.554 51.0786 121.66 50.0105 120.265 50.0105C118.918 50.0105 117.85 51.0096 117.85 52.5908C117.85 54.2109 118.969 55.099 120.334 55.099C121.036 55.099 121.702 54.865 122.173 54.4659ZM118.624 52.2097C118.717 51.3216 119.368 50.6676 120.271 50.6676C121.225 50.6676 121.768 51.3996 121.807 52.2097H118.624ZM123.57 53.9889L123.207 54.4839C123.726 54.859 124.26 55.099 124.989 55.099C126 55.099 126.834 54.64 126.834 53.6589C126.834 51.9067 124.143 52.5548 124.143 51.3726C124.143 50.8386 124.686 50.6496 125.187 50.6496C125.604 50.6496 126.045 50.7846 126.378 50.9886L126.69 50.4755C126.258 50.1785 125.718 50.0105 125.142 50.0105C124.206 50.0105 123.408 50.4545 123.408 51.4206C123.408 53.1908 126.087 52.5248 126.087 53.7039C126.087 54.2799 125.448 54.4479 124.938 54.4479C124.41 54.4479 123.987 54.2679 123.57 53.9889Z" fill="#19568C"/>
<path d="M172.299 52.1467H175V51.1236H172.299V49.0744H175.534V48.0453H171.126V55H172.299V52.1467ZM178.355 55.099C179.786 55.099 180.899 54.0639 180.899 52.5428C180.899 51.0246 179.795 50.0105 178.367 50.0105C176.93 50.0105 175.829 51.0396 175.829 52.5578C175.829 54.0729 176.927 55.099 178.355 55.099ZM178.355 54.1059C177.56 54.1059 176.966 53.4548 176.966 52.5548C176.966 51.6457 177.569 51.0126 178.364 51.0126C179.159 51.0126 179.753 51.6487 179.753 52.5488C179.753 53.4548 179.144 54.1059 178.355 54.1059ZM181.908 55H183.039V52.8608C183.039 51.8977 183.252 51.0696 184.218 51.0696C184.398 51.0696 184.566 51.0966 184.743 51.1506L184.92 50.1035C184.713 50.0435 184.5 50.0105 184.275 50.0105C183.624 50.0105 183.225 50.2775 182.949 50.8596L182.94 50.8566L182.841 50.1095H181.908V55ZM188.2 48.0453L187.924 55H189.076L189.271 49.9115L191.311 54.0789H192.137L194.129 49.9055L194.315 55H195.518L195.242 48.0453H193.952L191.752 52.5848L189.523 48.0453H188.2ZM200.936 54.4239L200.423 53.7189C200.054 53.9979 199.574 54.1719 199.088 54.1719C198.275 54.1719 197.72 53.6889 197.639 52.8908H201.23C201.242 52.7948 201.254 52.6268 201.254 52.4707C201.254 51.0756 200.369 50.0105 198.947 50.0105C197.582 50.0105 196.499 50.9976 196.499 52.5848C196.499 54.2169 197.633 55.099 199.016 55.099C199.754 55.099 200.456 54.847 200.936 54.4239ZM197.654 52.1197C197.756 51.4146 198.254 50.9466 198.944 50.9466C199.682 50.9466 200.09 51.4806 200.147 52.1197H197.654ZM206.641 55V52.0267C206.641 50.8266 206.023 50.0105 204.835 50.0105C204.178 50.0105 203.596 50.2655 203.227 50.7756L203.131 50.1095H202.198V55H203.338V52.2577C203.338 51.5347 203.779 51.0246 204.496 51.0246C205.15 51.0246 205.507 51.4416 205.507 52.0897V55H206.641ZM207.389 51.0726H208.247V53.3648C208.247 54.652 209.292 55.099 210.306 55.099L210.441 54.1779C209.778 54.0459 209.379 53.8929 209.379 53.0288V51.0726H210.573V50.1095H209.379V48.3963L208.247 48.6064V50.1095H207.389V51.0726ZM213.638 55.099C215.069 55.099 216.182 54.0639 216.182 52.5428C216.182 51.0246 215.078 50.0105 213.65 50.0105C212.213 50.0105 211.112 51.0396 211.112 52.5578C211.112 54.0729 212.21 55.099 213.638 55.099ZM213.638 54.1059C212.843 54.1059 212.249 53.4548 212.249 52.5548C212.249 51.6457 212.852 51.0126 213.647 51.0126C214.442 51.0126 215.036 51.6487 215.036 52.5488C215.036 53.4548 214.427 54.1059 213.638 54.1059ZM217.191 55H218.322V52.8608C218.322 51.8977 218.535 51.0696 219.501 51.0696C219.681 51.0696 219.849 51.0966 220.026 51.1506L220.203 50.1035C219.996 50.0435 219.783 50.0105 219.558 50.0105C218.907 50.0105 218.508 50.2775 218.232 50.8596L218.223 50.8566L218.124 50.1095H217.191V55ZM221.03 53.6949L220.523 54.3789C221.114 54.829 221.639 55.099 222.446 55.099C223.529 55.099 224.385 54.619 224.385 53.5809C224.385 51.7807 221.81 52.3987 221.81 51.4386C221.81 51.0696 222.188 50.9136 222.593 50.9136C222.971 50.9136 223.433 51.0486 223.802 51.2826L224.229 50.5746C223.775 50.2205 223.181 50.0105 222.521 50.0105C221.525 50.0105 220.7 50.4845 220.7 51.5167C220.7 53.3288 223.256 52.6598 223.256 53.6289C223.256 54.0339 222.821 54.1719 222.383 54.1719C221.87 54.1719 221.45 53.9829 221.03 53.6949Z" fill="#19568C"/>
<rect x="89" y="78" width="126" height="8" fill="#C4C4C4"/>
<rect x="89" y="94" width="126" height="8" fill="#C4C4C4"/>
<rect x="89" y="110" width="126" height="8" fill="#C4C4C4"/>
<rect x="89" y="126" width="126" height="8" fill="#C4C4C4"/>
<rect x="89" y="148" width="126" height="3" fill="#EDEDED"/>
<rect x="89" y="148" width="37" height="3" fill="#19568C"/>
<path d="M85.2294 150.516L85.0069 150.737L83.7706 149.5L85.0081 148.262L85.2294 148.484L84.2131 149.5L85.2294 150.516Z" fill="#19568C"/>
<path d="M218.771 148.484L218.993 148.263L220.229 149.5L218.992 150.738L218.771 150.516L219.787 149.5L218.771 148.484Z" fill="#19568C"/>
</svg>
